<?xml version="1.0" encoding="UTF-8"?>
<svg xmlns="http://www.w3.org/2000/svg" xmlns:xlink="http://www.w3.org/1999/xlink" width="512" height="512" viewBox="0 0 512 512"><defs><linearGradient id="a" data-name="New Gradient Swatch 1" x1="7.889" y1="504.111" x2="531.455" y2="-19.455" gradientUnits="userSpaceOnUse"><stop offset="0" stop-color="#003f8a"/><stop offset="0.518" stop-color="#00d7df"/><stop offset="1" stop-color="#006df0"/></linearGradient><linearGradient id="b" x1="87.086" y1="583.309" x2="610.652" y2="59.743" xlink:href="#a"/><linearGradient id="c" x1="-71.309" y1="424.914" x2="452.257" y2="-98.652" xlink:href="#a"/></defs><g><path d="M431.36,80.64A248,248,0,1,0,80.64,431.36,248,248,0,1,0,431.36,80.64ZM420.05,420.05A232,232,0,0,1,91.95,91.95a232,232,0,0,1,328.1,328.1Z" fill="url(#a)"/><path d="M420.03,115.46a8.014,8.014,0,0,0-11.73-.45L115.01,408.3a8.014,8.014,0,0,0,.45,11.73A216,216,0,0,0,420.03,115.46ZM309.32,236.62a63.987,63.987,0,0,1-88.7,88.7ZM209.13,336.82A79.987,79.987,0,0,0,320.82,225.13L369.94,176H372a12.01,12.01,0,0,1,12,12V356a12.01,12.01,0,0,1-12,12H177.94ZM256,456a200.056,200.056,0,0,1-123.43-42.62L161.94,384H372a28.031,28.031,0,0,0,28-28V188a28.022,28.022,0,0,0-16.53-25.53l29.91-29.9A200.056,200.056,0,0,1,456,256C456,366.28,366.28,456,256,456Z" fill="url(#b)"/><path d="M396.54,91.97A216,216,0,0,0,91.97,396.54a7.975,7.975,0,0,0,5.76,2.78c.11.01.21.01.31.01a8.025,8.025,0,0,0,5.66-2.34l91.58-91.58c.01-.01.02-.02.02-.03l94.07-94.07c.02-.01.03-.03.05-.04L396.99,103.7a8.014,8.014,0,0,0-.45-11.73ZM193.28,284.78a64.04,64.04,0,0,1,75.5-75.5Zm88.5-88.51A79.994,79.994,0,0,0,180.27,297.78L128,350.06V188a12.01,12.01,0,0,1,12-12H302.06ZM226.25,160l4-16h51.5l4,16Zm91.81,0H302.25l-6.49-25.94A8,8,0,0,0,288,128H224a8,8,0,0,0-7.76,6.06L209.75,160H140a28.031,28.031,0,0,0-28,28V356a27.944,27.944,0,0,0,1.39,8.67L98.62,379.43A200.056,200.056,0,0,1,56,256C56,145.72,145.72,56,256,56A200.056,200.056,0,0,1,379.43,98.62Z" fill="url(#c)"/></g></svg>
